<svg xmlns="http://www.w3.org/2000/svg" viewBox="0 0 60 60" width="100%" height="100%">
  <path fill="currentColor" fill-rule="evenodd" d="M30,2.5 C45.1878306,2.5 57.5,14.8121694 57.5,30 C57.5,45.1878306 45.1878306,57.5 30,57.5 C14.8121694,57.5 2.5,45.1878306 2.5,30 C2.5,14.8121694 14.8121694,2.5 30,2.5 Z M30,7.5 C17.5735931,7.5 7.5,17.5735931 7.5,30 C7.5,31.7693347 7.70422704,33.4909695 8.09039397,35.1426175 L14.482233,28.75 C16.4348545,26.7973785 19.6006794,26.7973785 21.5533009,28.75 L21.5533009,28.75 L26.9247419,34.1214411 C26.9497446,34.1464438 26.9757969,34.1703743 27.0028286,34.1931681 C27.5305977,34.6381974 28.3192067,34.5711235 28.7642359,34.0433544 L28.7642359,34.0433544 L36.389,25 L32.5,25 C31.1192881,25 30,23.8807119 30,22.5 C30,21.1192881 31.1192881,20 32.5,20 L42.5,20 C43.8807119,20 45,21.1192881 45,22.5 L45,32.5 C45,33.8807119 43.8807119,35 42.5,35 C41.1192881,35 40,33.8807119 40,32.5 L40,28.446 L31.6594113,38.2782305 C31.6152959,38.3302269 31.5701262,38.3813099 31.5239309,38.4314481 L31.3822978,38.578997 C29.4296764,40.5316184 26.2638515,40.5316184 24.31123,38.578997 L24.31123,38.578997 L18.9016504,33.1694174 C18.4134951,32.681262 17.6220388,32.681262 17.1338835,33.1694174 L17.1338835,33.1694174 L9.99492148,40.3081751 C13.7337288,47.5494175 21.2887292,52.5 30,52.5 C42.4264069,52.5 52.5,42.4264069 52.5,30 C52.5,17.5735931 42.4264069,7.5 30,7.5 Z"/>
</svg>
